<svg width="135" height="135" viewBox="0 0 135 135" fill="none" xmlns="http://www.w3.org/2000/svg">
<path d="M48.2832 23.0041C56.8352 7.66802 61.1079 0 67.5 0C73.8921 0 78.1647 7.66802 86.7168 23.0041L88.9307 26.9731C91.3607 31.3336 92.5757 33.5139 94.4656 34.9516C96.3556 36.3894 98.718 36.9226 103.443 37.9891L107.736 38.9611C124.34 42.7209 132.636 44.5974 134.614 50.9492C136.585 57.2942 130.928 63.9159 119.609 77.1527L116.679 80.575C113.466 84.3348 111.853 86.218 111.131 88.54C110.409 90.8688 110.652 93.3798 111.138 98.3951L111.583 102.965C113.291 120.63 114.148 129.459 108.978 133.38C103.807 137.309 96.0316 133.725 80.4934 126.57L76.4638 124.72C72.0494 122.682 69.8422 121.669 67.5 121.669C65.1578 121.669 62.9506 122.682 58.5362 124.72L54.5133 126.57C38.9684 133.725 31.1926 137.302 26.029 133.387C20.8518 129.459 21.7091 120.63 23.4168 102.965L23.8623 98.4018C24.3483 93.3798 24.5913 90.8688 23.8623 88.5468C23.1468 86.218 21.5336 84.3348 18.3207 80.5817L15.3912 77.1527C4.07174 63.9227 -1.58463 57.3009 0.386327 50.9492C2.36403 44.5974 10.6663 42.7141 27.2709 38.9611L31.5638 37.9891C36.282 36.9226 38.6377 36.3894 40.5344 34.9516C42.4243 33.5139 43.6393 31.3336 46.0693 26.9731L48.2832 23.0041Z" fill="#FF9900"/>
</svg>
